<svg width="584" height="96" viewBox="0 0 584 96" fill="none" xmlns="http://www.w3.org/2000/svg">
<path d="M0 2.79352H14.2312C16.3826 2.79352 18.6046 2.86406 20.8971 3.00513C23.2248 3.11094 25.4821 3.48127 27.6688 4.11612C29.8907 4.75096 31.9716 5.73851 33.9114 7.07874C35.8865 8.3837 37.6147 10.2353 39.096 12.6337C40.5773 14.9967 41.7412 17.9946 42.5877 21.6273C43.4694 25.2248 43.9103 29.6335 43.9103 34.8533V61.0937C43.9103 66.3136 43.4694 70.7398 42.5877 74.3726C41.7412 78.0053 40.5773 81.0032 39.096 83.3663C37.6147 85.7293 35.8865 87.5809 33.9114 88.9212C31.9716 90.2261 29.8907 91.196 27.6688 91.8309C25.4821 92.4657 23.2248 92.8537 20.8971 92.9948C18.6046 93.1006 16.3826 93.1535 14.2312 93.1535H0V2.79352ZM17.1938 83.5779C19.6626 83.5779 21.6906 83.2605 23.2777 82.6256C24.9001 81.9908 26.1698 80.8798 27.0868 79.2927C28.0391 77.6703 28.6916 75.4836 29.0443 72.7326C29.397 69.9463 29.5733 66.437 29.5733 62.2047V34.1656C29.5733 29.9333 29.397 26.4416 29.0443 23.6906C28.6916 20.9043 28.0391 18.7176 27.0868 17.1305C26.1698 15.5081 24.9001 14.3795 23.2777 13.7446C21.6906 13.1098 19.6626 12.7924 17.1938 12.7924H13.7021V83.5779H17.1938Z" fill="white"/>
<path d="M66.13 2.79352H81.8953L98.613 93.1535H84.7522L82.2657 76.9649H65.7596L63.379 93.1535H49.4652L66.13 2.79352ZM80.6786 66.6486L74.3301 21.6273H73.7481L67.3468 66.6486H80.6786Z" fill="white"/>
<path d="M100.676 2.79352H114.696L124.642 74.3726H125.224L135.223 2.79352H149.189L132.736 93.1535H117.076L100.676 2.79352Z" fill="white"/>
<path d="M157.971 2.79352H171.673V93.1535H157.971V2.79352Z" fill="white"/>
<path d="M187.174 2.79352H201.405C203.557 2.79352 205.779 2.86406 208.071 3.00513C210.399 3.11094 212.656 3.48127 214.843 4.11612C217.065 4.75096 219.146 5.73851 221.086 7.07874C223.061 8.3837 224.789 10.2353 226.27 12.6337C227.752 14.9967 228.915 17.9946 229.762 21.6273C230.644 25.2248 231.085 29.6335 231.085 34.8533V61.0937C231.085 66.3136 230.644 70.7398 229.762 74.3726C228.915 78.0053 227.752 81.0032 226.27 83.3663C224.789 85.7293 223.061 87.5809 221.086 88.9212C219.146 90.2261 217.065 91.196 214.843 91.8309C212.656 92.4657 210.399 92.8537 208.071 92.9948C205.779 93.1006 203.557 93.1535 201.405 93.1535H187.174V2.79352ZM204.368 83.5779C206.837 83.5779 208.865 83.2605 210.452 82.6256C212.074 81.9908 213.344 80.8798 214.261 79.2927C215.213 77.6703 215.866 75.4836 216.219 72.7326C216.571 69.9463 216.748 66.437 216.748 62.2047V34.1656C216.748 29.9333 216.571 26.4416 216.219 23.6906C215.866 20.9043 215.213 18.7176 214.261 17.1305C213.344 15.5081 212.074 14.3795 210.452 13.7446C208.865 13.1098 206.837 12.7924 204.368 12.7924H200.876V83.5779H204.368Z" fill="white"/>
<mask id="path-2-outside-1_158_3679" maskUnits="userSpaceOnUse" x="245.786" y="0" width="338" height="96" fill="black">
<rect fill="white" x="245.786" width="338" height="96"/>
<path d="M247.786 2.79356H282.332V13.586H261.488V40.6199H277.835V51.4123H261.488V93.1535H247.786V2.79356Z"/>
<path d="M291.167 2.79356H304.975V69.0293C304.975 71.8509 305.116 74.1963 305.398 76.0656C305.68 77.9348 306.121 79.4338 306.721 80.5624C307.356 81.6557 308.149 82.4493 309.101 82.9431C310.089 83.4016 311.253 83.6308 312.593 83.6308C313.933 83.6308 315.097 83.4016 316.085 82.9431C317.108 82.4493 317.936 81.6557 318.571 80.5624C319.241 79.4338 319.735 77.9348 320.053 76.0656C320.405 74.1963 320.582 71.8509 320.582 69.0293V2.79356H334.231V65.379C334.231 69.7876 333.878 73.5614 333.173 76.7004C332.467 79.8394 331.533 82.4669 330.369 84.5831C329.205 86.6992 327.865 88.3745 326.348 89.609C324.867 90.8434 323.315 91.7957 321.693 92.4658C320.105 93.1006 318.518 93.5062 316.931 93.6826C315.344 93.8589 313.898 93.9471 312.593 93.9471C311.288 93.9471 309.842 93.8589 308.255 93.6826C306.703 93.5062 305.134 93.1006 303.547 92.4658C301.959 91.7957 300.425 90.8434 298.944 89.609C297.463 88.3745 296.14 86.6992 294.976 84.5831C293.812 82.4669 292.878 79.857 292.172 76.7533C291.502 73.6143 291.167 69.8229 291.167 65.379V2.79356Z"/>
<path d="M349.361 2.79356H382.85V13.586H363.064V40.6199H378.353V51.4123H363.064V82.3611H383.379V93.1535H349.361V2.79356Z"/>
<path d="M393.272 2.79356H404.382L426.284 63.2628H426.601C426.495 61.852 426.354 60.2825 426.178 58.5543C426.002 56.8261 425.843 54.8687 425.702 52.682C425.561 50.46 425.437 47.9559 425.331 45.1696C425.226 42.3834 425.173 39.2444 425.173 35.7527V2.79356H437.447V93.1535H426.231L404.434 34.2714H404.011C404.117 35.8585 404.258 37.5867 404.434 39.456C404.611 41.29 404.769 43.4591 404.911 45.9632C405.052 48.4673 405.175 51.3947 405.281 54.7453C405.387 58.0606 405.44 62.0107 405.44 66.5957V93.1535H393.272V2.79356Z"/>
<path d="M461.306 13.586H446.758V2.79356H489.504V13.586H475.008V93.1535H461.306V13.586Z"/>
<path d="M498.762 2.79356H532.25V13.586H512.464V40.6199H527.754V51.4123H512.464V82.3611H532.779V93.1535H498.762V2.79356Z"/>
<path d="M539.181 74.8488C539.181 72.909 539.287 71.1278 539.498 69.5055C539.745 67.8478 540.098 66.0667 540.556 64.1622H551.19V68.5532C551.19 70.9868 551.331 73.1382 551.613 75.0075C551.931 76.8767 552.424 78.4639 553.095 79.7688C553.8 81.0385 554.717 82.0084 555.846 82.6785C557.009 83.3134 558.42 83.6308 560.078 83.6308C562.688 83.6308 564.681 82.9254 566.056 81.5147C567.432 80.0686 568.119 77.9701 568.119 75.2191C568.119 73.8083 568.014 72.521 567.802 71.3571C567.626 70.1579 567.29 68.9764 566.797 67.8125C566.338 66.6486 565.703 65.4319 564.892 64.1622C564.081 62.8572 563.041 61.4112 561.771 59.824L547.487 42.8419C544.947 39.5971 542.99 36.3347 541.614 33.0546C540.239 29.7393 539.551 26.2124 539.551 22.4738C539.551 19.4759 540.01 16.7249 540.927 14.2208C541.879 11.7167 543.237 9.56527 545 7.76653C546.764 5.93253 548.933 4.52176 551.507 3.53422C554.117 2.51141 557.062 2 560.342 2C564.328 2 567.643 2.56431 570.288 3.69293C572.969 4.82154 575.103 6.30286 576.69 8.13686C578.277 9.97086 579.388 12.0341 580.023 14.3266C580.693 16.5839 581.028 18.8587 581.028 21.1512C581.028 23.091 580.869 24.8898 580.552 26.5474C580.27 28.1698 579.935 29.9686 579.547 31.9436H568.966V27.6584C568.966 22.8618 568.278 19.1938 566.903 16.6544C565.527 14.0797 563.287 12.7924 560.184 12.7924C557.609 12.7924 555.687 13.5154 554.417 14.9615C553.147 16.3722 552.513 18.2768 552.513 20.6751C552.513 21.9448 552.601 23.091 552.777 24.1139C552.989 25.1367 553.271 26.0889 553.624 26.9707C554.012 27.8171 554.47 28.646 554.999 29.4572C555.528 30.2684 556.128 31.1148 556.798 31.9965L572.722 51.2536C575.614 55.0274 577.836 58.6601 579.388 62.1518C580.94 65.6082 581.716 69.2762 581.716 73.1558C581.716 76.3653 581.204 79.2574 580.181 81.8321C579.194 84.4067 577.765 86.5934 575.896 88.3922C574.027 90.1909 571.77 91.5841 569.124 92.5716C566.479 93.5239 563.499 94 560.184 94C556.092 94 552.689 93.4533 549.973 92.36C547.293 91.2666 545.141 89.8206 543.519 88.0218C541.932 86.2231 540.803 84.1775 540.133 81.885C539.498 79.5925 539.181 77.2471 539.181 74.8488Z"/>
</mask>
<path d="M247.786 2.79356H282.332V13.586H261.488V40.6199H277.835V51.4123H261.488V93.1535H247.786V2.79356Z" stroke="white" stroke-width="4" mask="url(#path-2-outside-1_158_3679)"/>
<path d="M291.167 2.79356H304.975V69.0293C304.975 71.8509 305.116 74.1963 305.398 76.0656C305.68 77.9348 306.121 79.4338 306.721 80.5624C307.356 81.6557 308.149 82.4493 309.101 82.9431C310.089 83.4016 311.253 83.6308 312.593 83.6308C313.933 83.6308 315.097 83.4016 316.085 82.9431C317.108 82.4493 317.936 81.6557 318.571 80.5624C319.241 79.4338 319.735 77.9348 320.053 76.0656C320.405 74.1963 320.582 71.8509 320.582 69.0293V2.79356H334.231V65.379C334.231 69.7876 333.878 73.5614 333.173 76.7004C332.467 79.8394 331.533 82.4669 330.369 84.5831C329.205 86.6992 327.865 88.3745 326.348 89.609C324.867 90.8434 323.315 91.7957 321.693 92.4658C320.105 93.1006 318.518 93.5062 316.931 93.6826C315.344 93.8589 313.898 93.9471 312.593 93.9471C311.288 93.9471 309.842 93.8589 308.255 93.6826C306.703 93.5062 305.134 93.1006 303.547 92.4658C301.959 91.7957 300.425 90.8434 298.944 89.609C297.463 88.3745 296.14 86.6992 294.976 84.5831C293.812 82.4669 292.878 79.857 292.172 76.7533C291.502 73.6143 291.167 69.8229 291.167 65.379V2.79356Z" stroke="white" stroke-width="4" mask="url(#path-2-outside-1_158_3679)"/>
<path d="M349.361 2.79356H382.85V13.586H363.064V40.6199H378.353V51.4123H363.064V82.3611H383.379V93.1535H349.361V2.79356Z" stroke="white" stroke-width="4" mask="url(#path-2-outside-1_158_3679)"/>
<path d="M393.272 2.79356H404.382L426.284 63.2628H426.601C426.495 61.852 426.354 60.2825 426.178 58.5543C426.002 56.8261 425.843 54.8687 425.702 52.682C425.561 50.46 425.437 47.9559 425.331 45.1696C425.226 42.3834 425.173 39.2444 425.173 35.7527V2.79356H437.447V93.1535H426.231L404.434 34.2714H404.011C404.117 35.8585 404.258 37.5867 404.434 39.456C404.611 41.29 404.769 43.4591 404.911 45.9632C405.052 48.4673 405.175 51.3947 405.281 54.7453C405.387 58.0606 405.44 62.0107 405.44 66.5957V93.1535H393.272V2.79356Z" stroke="white" stroke-width="4" mask="url(#path-2-outside-1_158_3679)"/>
<path d="M461.306 13.586H446.758V2.79356H489.504V13.586H475.008V93.1535H461.306V13.586Z" stroke="white" stroke-width="4" mask="url(#path-2-outside-1_158_3679)"/>
<path d="M498.762 2.79356H532.25V13.586H512.464V40.6199H527.754V51.4123H512.464V82.3611H532.779V93.1535H498.762V2.79356Z" stroke="white" stroke-width="4" mask="url(#path-2-outside-1_158_3679)"/>
<path d="M539.181 74.8488C539.181 72.909 539.287 71.1278 539.498 69.5055C539.745 67.8478 540.098 66.0667 540.556 64.1622H551.19V68.5532C551.19 70.9868 551.331 73.1382 551.613 75.0075C551.931 76.8767 552.424 78.4639 553.095 79.7688C553.8 81.0385 554.717 82.0084 555.846 82.6785C557.009 83.3134 558.42 83.6308 560.078 83.6308C562.688 83.6308 564.681 82.9254 566.056 81.5147C567.432 80.0686 568.119 77.9701 568.119 75.2191C568.119 73.8083 568.014 72.521 567.802 71.3571C567.626 70.1579 567.29 68.9764 566.797 67.8125C566.338 66.6486 565.703 65.4319 564.892 64.1622C564.081 62.8572 563.041 61.4112 561.771 59.824L547.487 42.8419C544.947 39.5971 542.99 36.3347 541.614 33.0546C540.239 29.7393 539.551 26.2124 539.551 22.4738C539.551 19.4759 540.01 16.7249 540.927 14.2208C541.879 11.7167 543.237 9.56527 545 7.76653C546.764 5.93253 548.933 4.52176 551.507 3.53422C554.117 2.51141 557.062 2 560.342 2C564.328 2 567.643 2.56431 570.288 3.69293C572.969 4.82154 575.103 6.30286 576.69 8.13686C578.277 9.97086 579.388 12.0341 580.023 14.3266C580.693 16.5839 581.028 18.8587 581.028 21.1512C581.028 23.091 580.869 24.8898 580.552 26.5474C580.27 28.1698 579.935 29.9686 579.547 31.9436H568.966V27.6584C568.966 22.8618 568.278 19.1938 566.903 16.6544C565.527 14.0797 563.287 12.7924 560.184 12.7924C557.609 12.7924 555.687 13.5154 554.417 14.9615C553.147 16.3722 552.513 18.2768 552.513 20.6751C552.513 21.9448 552.601 23.091 552.777 24.1139C552.989 25.1367 553.271 26.0889 553.624 26.9707C554.012 27.8171 554.47 28.646 554.999 29.4572C555.528 30.2684 556.128 31.1148 556.798 31.9965L572.722 51.2536C575.614 55.0274 577.836 58.6601 579.388 62.1518C580.94 65.6082 581.716 69.2762 581.716 73.1558C581.716 76.3653 581.204 79.2574 580.181 81.8321C579.194 84.4067 577.765 86.5934 575.896 88.3922C574.027 90.1909 571.77 91.5841 569.124 92.5716C566.479 93.5239 563.499 94 560.184 94C556.092 94 552.689 93.4533 549.973 92.36C547.293 91.2666 545.141 89.8206 543.519 88.0218C541.932 86.2231 540.803 84.1775 540.133 81.885C539.498 79.5925 539.181 77.2471 539.181 74.8488Z" stroke="white" stroke-width="4" mask="url(#path-2-outside-1_158_3679)"/>
</svg>
